<svg xmlns="http://www.w3.org/2000/svg" width="57.034" height="141.73" viewBox="0 0 57.034 141.73">
  <path id="_" data-name="!!" d="M51.928-105.82,48.736-12.829H27.34L24.32-105.82ZM38.124,1.331A16.1,16.1,0,0,1,49.34,5.562,13.371,13.371,0,0,1,54,15.837a13.193,13.193,0,0,1-4.659,10.1A16.1,16.1,0,0,1,38.124,30.17a15.791,15.791,0,0,1-11.13-4.231,13.3,13.3,0,0,1-4.573-10.1A13.481,13.481,0,0,1,26.994,5.562a15.791,15.791,0,0,1,11.13-4.231Z" transform="translate(-15.681 101.478) rotate(10)" stroke="#fff" stroke-width="2"/>
</svg>
