<svg xmlns="http://www.w3.org/2000/svg" width="30.002" height="122.005" viewBox="0 0 30.002 122.005">
  <path id="_" data-name="!" d="M42.18-75.586,39.349,6.471H20.376L17.7-75.586ZM29.939,18.966A14.316,14.316,0,0,1,39.884,22.7a11.774,11.774,0,0,1,4.131,9.067,11.618,11.618,0,0,1-4.131,8.914,14.316,14.316,0,0,1-9.945,3.733,14.041,14.041,0,0,1-9.869-3.733,11.71,11.71,0,0,1-4.055-8.914A11.87,11.87,0,0,1,20.07,22.7a14.041,14.041,0,0,1,9.869-3.734Z" transform="translate(-15.014 76.586)" stroke="#fff" stroke-width="2"/>
</svg>
