<svg xmlns="http://www.w3.org/2000/svg" xmlns:xlink="http://www.w3.org/1999/xlink" width="428" height="128" viewBox="0 0 428 128">
  <defs>
    <filter id="線_1" x="0" y="0" width="428" height="128" filterUnits="userSpaceOnUse">
      <feOffset dy="3" input="SourceAlpha"/>
      <feGaussianBlur stdDeviation="3" result="blur"/>
      <feFlood flood-opacity="0.651"/>
      <feComposite operator="in" in2="blur"/>
      <feComposite in="SourceGraphic"/>
    </filter>
    <filter id="パス_2" x="127.219" y="35.688" width="168.156" height="54.563" filterUnits="userSpaceOnUse">
      <feOffset dy="3" input="SourceAlpha"/>
      <feGaussianBlur stdDeviation="3" result="blur-2"/>
      <feFlood/>
      <feComposite operator="in" in2="blur-2"/>
      <feComposite in="SourceGraphic"/>
    </filter>
    <filter id="パス_1" x="353.905" y="47.196" width="29.11" height="32.687" filterUnits="userSpaceOnUse">
      <feOffset dy="3" input="SourceAlpha"/>
      <feGaussianBlur stdDeviation="3" result="blur-3"/>
      <feFlood/>
      <feComposite operator="in" in2="blur-3"/>
      <feComposite in="SourceGraphic"/>
    </filter>
  </defs>
  <g id="グループ_1" data-name="グループ 1" transform="translate(-1083.5 -683.5)">
    <g transform="matrix(1, 0, 0, 1, 1083.5, 683.5)" filter="url(#線_1)">
      <line id="線_1-2" data-name="線 1" x2="300" transform="translate(64 61)" fill="none" stroke="#e60012" stroke-linecap="round" stroke-width="110"/>
    </g>
    <g transform="matrix(1, 0, 0, 1, 1083.5, 683.5)" filter="url(#パス_2)">
      <path id="パス_2-2" data-name="パス 2" d="M9.375-25.312H32.5l2.344-2.344,3.281,3.281H8.906q0,6.406-.156,10.391A36.593,36.593,0,0,1,7.344-5.547,21.876,21.876,0,0,1,2.031,3.281l-.312-.469a25.822,25.822,0,0,0,4.141-10.7,72.507,72.507,0,0,0,.7-9.141q0-3.75-.156-9.844Zm2.969,11.094h.625a28.5,28.5,0,0,1-.547,6.953,3.188,3.188,0,0,1-1.484,2.188,4.286,4.286,0,0,1-1.25.391,1.2,1.2,0,0,1-1.016-.547,1.69,1.69,0,0,1-.391-.859q0-.781,1.406-2.031Q11.563-9.844,12.344-14.219ZM15.781-1.094q0-13.125-.156-15.937l3.75,1.719-1.406,1.094V-2.187Q17.656.156,19.844-.156H27.5a1.892,1.892,0,0,0,2.109-1.562,24.406,24.406,0,0,0,.7-5.781h.625a32.359,32.359,0,0,0,.547,4.688,3.18,3.18,0,0,0,1.953,2.5,4.692,4.692,0,0,1-4.219,2.188H19.375Q15.469,2.187,15.781-1.094Zm3.438-20.625.469-.312q4.219,3.125,4.922,4.219a3.577,3.577,0,0,1,.7,1.719,2.652,2.652,0,0,1-.781,1.8q-.781.859-.937.859-.625,0-1.094-1.719A23.627,23.627,0,0,0,19.219-21.719Zm10.938,7.813.469-.312a30.433,30.433,0,0,1,5.156,4.609A4.131,4.131,0,0,1,36.719-7.5a2.8,2.8,0,0,1-.7,1.8q-.7.859-1.016.859-.625,0-1.094-2.031A24.69,24.69,0,0,0,30.156-13.906ZM17.344-32.5A21.416,21.416,0,0,1,22.031-30a2.575,2.575,0,0,1,1.094,1.875,3.073,3.073,0,0,1-.547,1.641q-.547.859-.859.859-.469,0-.937-1.25a20.923,20.923,0,0,0-3.75-5.156ZM69.219-4.844Q68.594.625,67.5,1.8a7.4,7.4,0,0,1-3.75,1.8Q63.906,1.25,59.375.156V-.469Q64.063.313,65,.391A1.374,1.374,0,0,0,66.406-.625a19.474,19.474,0,0,0,.781-4.844H58.594a10.181,10.181,0,0,1-2.5,4.844,13.328,13.328,0,0,1-5,2.891A28.229,28.229,0,0,1,43.75,3.75V3.281a30.875,30.875,0,0,0,8.828-3.2,9.286,9.286,0,0,0,3.984-5.547H54.219A14.219,14.219,0,0,0,50.469-5L49.063-6.406h7.656a32.017,32.017,0,0,0,.313-4.531l3.594,1.719-1.406.781q-.156.625-.469,2.031h8.281l1.094-1.25,2.344,1.875ZM54.375-28.906q0-2.031-.156-3.906l3.438,1.406-1.25,1.094v1.406H63.75a37.526,37.526,0,0,0-.156-3.906l3.438,1.25-1.25,1.25v1.406h6.25l2.188-2.187,3.125,3.125H65.781v2.656l-2.031.625v-3.281H56.406v2.656l-2.031.781v-3.437h-6.25a14.219,14.219,0,0,0-3.75.469l-1.406-1.406ZM51.25-19.687v2.344h17.5v-2.344Zm19.531-2.969q0,4.688.156,6.563l-2.187.938v-1.25H57.969l2.344,1.25a3.147,3.147,0,0,0-1.719.938l-1.562,1.563h15L74.375-15l3.281,3.281h-12.5a20.5,20.5,0,0,0,6.8,3.75,21.163,21.163,0,0,0,6.172,1.094v.625q-2.344.469-2.656,2.188A22.916,22.916,0,0,1,68.828-7.5a28.793,28.793,0,0,1-4.609-4.219H56.406a24.323,24.323,0,0,1-7.344,4.844,45.119,45.119,0,0,1-7.5,2.5l-.156-.469a52.3,52.3,0,0,0,6.8-3.047,26.461,26.461,0,0,0,5.547-3.828H47.813a14.219,14.219,0,0,0-3.75.469l-1.406-1.406H54.375a19.566,19.566,0,0,0,2.5-3.75H51.25v.781l-2.187.781q.156-2.656.156-5.312t-.156-5.156l2.188,1.25H68.594l.938-1.25,2.5,1.719ZM51.25-23.125v2.5h17.5v-2.5Zm48.984-6.406a5,5,0,0,1,1.719.313,2.483,2.483,0,0,1,1.094.625,1.039,1.039,0,0,1,.234.625,1.387,1.387,0,0,1-.156.625,20.07,20.07,0,0,0-.312,4.844q5.938-.781,7.344-.937a21.165,21.165,0,0,1,2.188-.156,5.046,5.046,0,0,1,1.875.313,1.823,1.823,0,0,1,1.016.781,1.886,1.886,0,0,1,.234.625q0,.469-1.094.313-1.562,0-4.453.078t-7.109.547q0,2.344.156,5.469a17.682,17.682,0,0,1,.391,4.688,14.1,14.1,0,0,1-1.172,5.313A11.464,11.464,0,0,1,99.063-1.25a13.957,13.957,0,0,1-4.141,2.5,8.372,8.372,0,0,1-2.422.7q-.313-.078-.312-.234T93.594.938a20.157,20.157,0,0,0,4.063-3.2,13.384,13.384,0,0,0,3.438-5.859,4.112,4.112,0,0,1-2.734,1.641,3.074,3.074,0,0,1-2.656-.7A5.072,5.072,0,0,1,94.3-9.922a8.171,8.171,0,0,1-.078-3.359,5.724,5.724,0,0,1,1.25-2.656,4.214,4.214,0,0,1,2.344-1.406,4.618,4.618,0,0,1,3.281.781q0-1.562-.156-4.219-4.531.625-7.031,1.094a40.763,40.763,0,0,0-4.062.938,6.573,6.573,0,0,1-1.562.156,3.1,3.1,0,0,1-1.406-.312,3.48,3.48,0,0,1-1.094-.859q-.469-.547-.469-.7,0-.469,1.875-.312a25.622,25.622,0,0,0,5.391-.312q3.2-.469,8.359-1.25a22.253,22.253,0,0,0-.469-4.531,5.648,5.648,0,0,0-.7-1.484,1.69,1.69,0,0,1-.391-.859Q99.375-29.531,100.234-29.531Zm-.312,14.141a3.012,3.012,0,0,0-1.484-.391,2.18,2.18,0,0,0-1.562.859,3.67,3.67,0,0,0-.937,2.031,8.25,8.25,0,0,0,0,2.266A3.468,3.468,0,0,0,96.8-8.75a1.537,1.537,0,0,0,1.719.469,3.36,3.36,0,0,0,1.719-1.25,4.2,4.2,0,0,0,.781-2.344,7.327,7.327,0,0,0-.156-2.266A1.941,1.941,0,0,0,99.922-15.391Zm38.438-10.156a15.675,15.675,0,0,0,3.672-1.328,8.883,8.883,0,0,1,2.656-.859,2.1,2.1,0,0,1,1.8,1.094A3.706,3.706,0,0,1,147.344-25q0,.469-.937,1.094A42.039,42.039,0,0,0,142.188-20q-3.281,3.281-6.25,6.875a17.269,17.269,0,0,1,7.813-1.953,9.363,9.363,0,0,1,5.547,1.563,5.421,5.421,0,0,1,2.266,2.969,11.959,11.959,0,0,1,.313,2.266,10.2,10.2,0,0,1-.781,3.594,7.778,7.778,0,0,1-3.125,3.594A12.03,12.03,0,0,1,143.2.859a25.1,25.1,0,0,1-3.359.391,11.958,11.958,0,0,1-2.266-.312,5.029,5.029,0,0,1-2.656-1.562,4.618,4.618,0,0,1-1.328-2.656,3.152,3.152,0,0,1,.938-2.578,3.588,3.588,0,0,1,3.2-.937A6.7,6.7,0,0,1,141.563-5a6.228,6.228,0,0,1,2.031,3.906q4.062-1.25,5.078-3.437a9.043,9.043,0,0,0,1.016-3.594,6.891,6.891,0,0,0-.781-2.891,3.709,3.709,0,0,0-2.891-2.031,19.05,19.05,0,0,0-3.047-.391,18.753,18.753,0,0,0-2.656.313,12.539,12.539,0,0,0-3.984,1.484,23.118,23.118,0,0,0-3.437,2.266,18.275,18.275,0,0,0-2.266,2.188q-.625.781-1.094.781-.312,0-.625-.625a2.922,2.922,0,0,1-.234-1.562q.078-.937,1.8-2.031A41.822,41.822,0,0,0,135-14.609q2.969-2.891,5.625-6.016t3.125-3.828a2.281,2.281,0,0,0,.469-1.016q0-.313-.391-.391a7.584,7.584,0,0,0-2.422.7q-2.031.781-3.125,1.094-1.25.469-2.891,1.172a2.685,2.685,0,0,1-3.047-.547q-1.406-1.25,0-1.25a17.08,17.08,0,0,0,2.813-.234Q136.563-25.156,138.359-25.547Zm2.422,21.8A4.14,4.14,0,0,0,138.906-5a6.722,6.722,0,0,0-1.25-.156,3.838,3.838,0,0,0-1.406.313q-.781.313-.7,1.484a2.663,2.663,0,0,0,1.406,2.031A5.484,5.484,0,0,0,140-.469a18.753,18.753,0,0,0,2.656-.312A9.088,9.088,0,0,0,140.781-3.75Z" transform="translate(134.5 74.5)" fill="#fff"/>
    </g>
    <g transform="matrix(1, 0, 0, 1, 1083.5, 683.5)" filter="url(#パス_1)">
      <path id="パス_1-2" data-name="パス 1" d="M1448,736.219l8.834,6.54L1448,749.3" transform="translate(-1084.5 -682.22)" fill="none" stroke="#fff" stroke-width="2"/>
    </g>
  </g>
</svg>
