<svg xmlns="http://www.w3.org/2000/svg" width="75.646" height="19.8" viewBox="0 0 75.646 19.8">
  <path id="cloud3" d="M152.87,75.79a1.719,1.719,0,0,0,.15-.72,2.038,2.038,0,0,0-1.83-1.95,1.771,1.771,0,0,0,.01-.23,2.7,2.7,0,0,0-2.65-2.74,3.418,3.418,0,0,0-.45.04,3.243,3.243,0,0,0-5.69-.48,2.974,2.974,0,0,0-3.26,1.13,2.3,2.3,0,0,0-1.03-.24,2.067,2.067,0,0,0-2.11-1.63,2.121,2.121,0,0,0-.57.08.8.8,0,0,0-.65-.57,1.273,1.273,0,0,0,.08-.44,1.386,1.386,0,0,0-1.41-1.36c-.05,0-.09.01-.13.01a1.721,1.721,0,0,0-1.72-1.28,2.317,2.317,0,0,0-.46.06,1.653,1.653,0,0,0-1.33-.66,1.625,1.625,0,0,0-1.44.84,1.766,1.766,0,0,0-1.02-.36v-.01a1.288,1.288,0,0,0-1.34-1.23,1.1,1.1,0,0,0-.18.02,1.077,1.077,0,0,0-1.05-.81,1.122,1.122,0,0,0-.73.28.8.8,0,0,0-.5-.18.73.73,0,0,0-.41.12,1.347,1.347,0,0,0-1.46-1.16,1.421,1.421,0,0,0-.42.06,2.035,2.035,0,0,0-1.97-1.45,1.666,1.666,0,0,0-1.58-.95,1.744,1.744,0,0,0-1.43.69,1.049,1.049,0,0,0-.44-.09,1.008,1.008,0,0,0-1.04.93h-.04a.854.854,0,0,0-.9.8.522.522,0,0,0,.04.21,1.361,1.361,0,0,0-.36-.05,1.093,1.093,0,0,0-1.21.92.645.645,0,0,0,.03.2,2.955,2.955,0,0,0-.95-.15,2.73,2.73,0,0,0-1.95.77,3.165,3.165,0,0,0-5.84.22,1.983,1.983,0,0,0-.73-.15,2.224,2.224,0,0,0-2.13,2.3c0,.05.01.1.01.15a1.63,1.63,0,0,0-.45-.07,1.662,1.662,0,0,0-1.65,1.67,1.7,1.7,0,0,0,.13.64,2.079,2.079,0,0,0-1.6,1.87,1.611,1.611,0,0,0,.06.44,2.6,2.6,0,0,0-.93-.16,2.41,2.41,0,0,0-2.31,1.51,4.123,4.123,0,0,0-6.71-.2,2.092,2.092,0,0,0-1.5-.64,2.034,2.034,0,0,0-2.06,2.01,1.909,1.909,0,0,0,.09.54,3.435,3.435,0,0,0-.56-.04,2.577,2.577,0,0,0-2.82,2.22,1.8,1.8,0,0,0,.1.57c-.92.56-1.26,1.88,1.49,2.69h70.71c1.53,0,2.78-.89,2.78-1.99C155.53,76.7,154.35,75.83,152.87,75.79Z" transform="translate(-79.904 -59.98)" fill="#f5f5f5" opacity="0.6"/>
</svg>
