<svg xmlns="http://www.w3.org/2000/svg" width="119.179" height="27.82" viewBox="0 0 119.179 27.82">
  <path id="cloud1" d="M117.95,107.17a2.552,2.552,0,0,0-.84.14,3.316,3.316,0,0,0-2.96-1.68,3.531,3.531,0,0,0-.56.05,5.929,5.929,0,0,0-5.39-2.92,7.583,7.583,0,0,0-.84.05v-.05a5.026,5.026,0,0,0-4.9-5.11,5.54,5.54,0,0,0-5.65-4.42,6.053,6.053,0,0,0-3.82,1.32,3.03,3.03,0,0,0-2.4-1.77,3.64,3.64,0,0,0-6.92-.1,1.144,1.144,0,0,0-.52-.13,1.228,1.228,0,0,0-1.12.79.783.783,0,0,0-.37-.13,1.623,1.623,0,0,0-1.45-1.57c0-.04.01-.07.01-.11a3.356,3.356,0,0,0-3.48-3.21,3.843,3.843,0,0,0-.76.08,1.465,1.465,0,0,0-.86-.88,1.736,1.736,0,0,0,.35-1.04,1.873,1.873,0,0,0-1.91-1.82,1.759,1.759,0,0,0-.46.06,1.729,1.729,0,0,0-1.67-1.54,1.685,1.685,0,0,0-1.45.88,1.687,1.687,0,0,0-.83-.22,1.842,1.842,0,0,0-1.79,1.66c-.03,0-.05-.01-.08-.01a1.207,1.207,0,0,0-1.24,1.17.881.881,0,0,0,.02.17,4.958,4.958,0,0,0-1.29-.17,4.225,4.225,0,0,0-4.36,3.58,2.681,2.681,0,0,0-2.49,1.96l-.45.26a4.945,4.945,0,0,0-3.56-1.45,4.629,4.629,0,0,0-4.55,3.11,1.855,1.855,0,0,0-1.65,1.79,1.588,1.588,0,0,0-.5-.08,1.391,1.391,0,0,0-1.43,1.13,5.088,5.088,0,0,0-2.75-.8,5.171,5.171,0,0,0-1.31.17,2.6,2.6,0,0,0-2.1-1.04,2.664,2.664,0,0,0-1.66.59,6.574,6.574,0,0,0-2.49-.48,7.173,7.173,0,0,0-1.04.08,4.368,4.368,0,0,0-3.62-2.1,3.481,3.481,0,0,0-.79.09,5.327,5.327,0,0,0-4.84-3.68c-2.66,0-4.86,2.28-5.23,5.26a1.632,1.632,0,0,0-.33-.05,4.163,4.163,0,0,0-4.03,4.29c0,.13.03.25.04.38a2.264,2.264,0,0,0-2.1,2.11.507.507,0,0,0,.02.13,4.44,4.44,0,0,0-2.18-.56c-2.14,0-3.88,1.45-3.88,3.24,0,.11.03.22.04.33a3.4,3.4,0,0,0-1.45-.33,2.587,2.587,0,0,0-2.83,2.24c-.85,0-1.38.74-1.74,1.46C.42,110.4,2.23,111,3.08,111H117.79c1.32,0,2.56-.72,2.56-1.83A2.228,2.228,0,0,0,117.95,107.17Z" transform="translate(-1.171 -83.18)" fill="#fff" opacity="0.8"/>
</svg>
