<svg xmlns="http://www.w3.org/2000/svg" width="66.54" height="15.56" viewBox="0 0 66.54 15.56">
  <path id="cloud2" d="M286.88,108.86a1.448,1.448,0,0,0-.47.08,1.855,1.855,0,0,0-1.65-.94,1.553,1.553,0,0,0-.31.03,3.293,3.293,0,0,0-3.01-1.63,3.593,3.593,0,0,0-.47.03v-.03a2.8,2.8,0,0,0-2.74-2.85,3.091,3.091,0,0,0-3.15-2.47,3.355,3.355,0,0,0-2.13.74,1.7,1.7,0,0,0-1.34-.99,2.031,2.031,0,0,0-3.86-.06.592.592,0,0,0-.29-.07.679.679,0,0,0-.62.44.377.377,0,0,0-.21-.07.887.887,0,0,0-.81-.87c0-.02.01-.04.01-.06a1.928,1.928,0,0,0-2.36-1.74.8.8,0,0,0-.48-.49,1,1,0,0,0,.19-.58,1.049,1.049,0,0,0-1.07-1.02,1.153,1.153,0,0,0-.26.03.965.965,0,0,0-.93-.86.952.952,0,0,0-.81.49.929.929,0,0,0-.46-.12,1.033,1.033,0,0,0-1,.93h-.04a.671.671,0,0,0-.69.65c0,.03.01.06.01.1a2.844,2.844,0,0,0-.72-.1,2.358,2.358,0,0,0-2.43,2,1.5,1.5,0,0,0-1.39,1.09l-.25.15a2.782,2.782,0,0,0-1.99-.81,2.593,2.593,0,0,0-2.54,1.73,1.035,1.035,0,0,0-.92,1,.868.868,0,0,0-.28-.05.787.787,0,0,0-.8.63,2.893,2.893,0,0,0-1.54-.45,2.923,2.923,0,0,0-.73.1,1.458,1.458,0,0,0-1.17-.58,1.475,1.475,0,0,0-.92.33,3.613,3.613,0,0,0-1.97-.22,2.447,2.447,0,0,0-2.02-1.17,2.118,2.118,0,0,0-.44.05,2.977,2.977,0,0,0-2.7-2.05,3.139,3.139,0,0,0-2.92,2.94c-.06,0-.12-.02-.19-.02a2.325,2.325,0,0,0-2.25,2.39,1.49,1.49,0,0,0,.02.21,1.265,1.265,0,0,0-1.17,1.18c0,.03.01.05.01.07a2.457,2.457,0,0,0-1.22-.31,2.013,2.013,0,0,0-2.17,1.81c0,.06.02.12.02.18a1.927,1.927,0,0,0-.81-.18,1.446,1.446,0,0,0-1.58,1.25c-.48,0-.77.42-.97.82-.61,1.18.4,1.52.88,1.52h64.04c.74,0,1.43-.4,1.43-1.02A1.279,1.279,0,0,0,286.88,108.86Z" transform="translate(-221.7 -95.48)" fill="#fff" opacity="0.5"/>
</svg>
