<svg xmlns="http://www.w3.org/2000/svg" width="15.37" height="2.538" viewBox="0 0 15.37 2.538">
  <path id="crow1" d="M95,84.06a19.736,19.736,0,0,1-3.39-.85,5.316,5.316,0,0,0-3.25.65.862.862,0,0,0-.7-.39.836.836,0,0,0-.68.36,5.625,5.625,0,0,0-3.33-.74,20.067,20.067,0,0,1-3.4.78c-.17.01-.31.01-.31.01s.14.03.31.06a7.416,7.416,0,0,0,1.58.1,17.979,17.979,0,0,1,1.81-.09,3.817,3.817,0,0,1,1.62.46,14.173,14.173,0,0,1,1.6,1,2.006,2.006,0,0,0,1.65-.03,11.885,11.885,0,0,1,1.47-.87,3.862,3.862,0,0,1,1.63-.43c.63-.02,1.21.09,1.81.12A6.822,6.822,0,0,0,95,84.13c.17-.03.31-.05.31-.05Z" transform="translate(-79.94 -83.035)" fill="#063e61" fill-rule="evenodd"/>
</svg>
