<svg xmlns="http://www.w3.org/2000/svg" width="10.6" height="10.87" viewBox="0 0 10.6 10.87">
  <path id="crow4" d="M231.55,67.38a20.905,20.905,0,0,1-1.78-2.96,5.288,5.288,0,0,0-2.72-1.82.889.889,0,0,0-.21-.76.868.868,0,0,0-.73-.23,5.479,5.479,0,0,0-1.81-2.84,19.781,19.781,0,0,1-2.92-1.83c-.12-.11-.22-.21-.22-.21s.08.12.17.26a7.1,7.1,0,0,0,1.04,1.17c.44.4.91.74,1.33,1.2a3.969,3.969,0,0,1,.82,1.45,13.725,13.725,0,0,1,.42,1.81,1.981,1.981,0,0,0,1.17,1.13,12.648,12.648,0,0,1,1.63.42,3.789,3.789,0,0,1,1.43.84c.45.42.78.9,1.18,1.35a7.625,7.625,0,0,0,1.16,1.06l.25.18S231.66,67.5,231.55,67.38Z" transform="translate(-221.16 -56.73)" fill="#063e61" fill-rule="evenodd"/>
</svg>
