<svg xmlns="http://www.w3.org/2000/svg" width="11.36" height="1.881" viewBox="0 0 11.36 1.881">
  <path id="crow3" d="M274.31,65.56a14.833,14.833,0,0,1-2.51-.63,3.967,3.967,0,0,0-2.4.48.636.636,0,0,0-.51-.29.659.659,0,0,0-.51.26,4.163,4.163,0,0,0-2.46-.55,15.769,15.769,0,0,1-2.51.58c-.12.01-.23.01-.23.01s.1.02.23.05a5.623,5.623,0,0,0,1.17.07c.45-.02.88-.09,1.34-.07a2.816,2.816,0,0,1,1.2.34,10.881,10.881,0,0,1,1.18.74,1.48,1.48,0,0,0,1.22-.02,9.935,9.935,0,0,1,1.08-.64,3,3,0,0,1,1.2-.32,11.9,11.9,0,0,1,1.34.09,5.612,5.612,0,0,0,1.17-.05l.23-.04S274.43,65.57,274.31,65.56Z" transform="translate(-263.18 -64.791)" fill="#063e61" fill-rule="evenodd"/>
</svg>
