<svg xmlns="http://www.w3.org/2000/svg" width="96.52" height="107.506" viewBox="0 0 96.52 107.506">
  <path id="ka" d="M94.681-61.338q-.323,13.535-1.29,26.56T91.266-13Q90.11-4.243,88.578-1.45A15.3,15.3,0,0,1,84.733,3.2a16.069,16.069,0,0,1-5.646,2.82q-3.334.967-10.915.967-3.656,0-8.066-.322L56.02-8q14.357.43,16.023-.3A5.406,5.406,0,0,0,74.6-10.5q.887-1.477,2.285-12.354t2.151-24.412H57.579Q56.719-30.347,45.8-14.421a85.632,85.632,0,0,1-27.53,25.7L7.681-1.182A72.386,72.386,0,0,0,31.608-21.216q9.517-12.407,10.431-26.05H13.649V-61.338H42.631V-87.871H58.009v26.533Z" transform="translate(-5.215 88.266) rotate(4.012)" fill="#fff700" stroke="#fff" stroke-width="2"/>
</svg>
