<svg xmlns="http://www.w3.org/2000/svg" width="104.53" height="104.53" viewBox="0 0 104.53 104.53">
  <g id="rotation" transform="translate(-115.69 -56.29)">
    <g id="upleft">
      <path id="_2" data-name="2" d="M121.6,61.58l-.84.86s-.24.36.44,1.01l22.04,22.06h0l1.27,1.26,1.44,1.44h0l19.11,19.09c.64.68,1.01.44,1.01.44l.86-.84L145.79,85.82Z" fill="#202b52"/>
      <path id="_1" data-name="1" d="M154.86,94.84l5.29-5.29L126.89,56.29l-5.29,5.29ZM122.3,61.58l2.12-2.12,1.73,1.73-2.12,2.12.35.35,2.12-2.12,1.47,1.47-2.12,2.12.35.35,2.12-2.12,1.47,1.47-2.12,2.12.35.35,2.12-2.12,1.47,1.47-2.12,2.12.35.35L131.96,67l1.47,1.47-2.12,2.12.35.35,2.12-2.12,1.47,1.47-2.12,2.12.35.35,2.12-2.12,1.47,1.47-2.12,2.12.35.35,2.12-2.12,1.47,1.47-2.12,2.12.35.35,2.12-2.12,1.47,1.47-2.12,2.12.35.35,2.12-2.12,1.47,1.47-2.12,2.12.35.35,2.12-2.12,1.47,1.47-2.12,2.12.35.35,2.12-2.12,1.47,1.47-2.12,2.12.35.35,2.12-2.12,1.47,1.47-2.12,2.12.35.35,2.12-2.12,1.47,1.47-2.12,2.12.35.35,2.12-2.12,1.47,1.47-2.12,2.12.35.35,2.12-2.12,1.47,1.47-2.12,2.12.35.35,2.12-2.12,1.47,1.47-2.12,2.12.35.35,2.12-2.12,1.39,1.39-2.12,2.12Zm31.47,26.53-1.47-1.47,2.12-2.12,1.47,1.47Zm2.47-1.77,1.47,1.47-2.12,2.12-1.47-1.47Zm-4.29-.05-1.47-1.47,2.12-2.12,1.47,1.47Zm-1.82-1.82L148.66,83l2.12-2.12,1.47,1.47Zm-1.82-1.82-1.47-1.47,2.12-2.12,1.47,1.47Zm-1.81-1.82-1.47-1.47,2.12-2.12,1.47,1.47Zm-1.82-1.81-1.47-1.47,2.12-2.12,1.47,1.47Zm-1.82-1.82-1.47-1.47,2.12-2.12,1.47,1.47Zm-1.82-1.82-1.47-1.47,2.12-2.12,1.47,1.47Zm-1.81-1.82-1.47-1.47,2.12-2.12,1.47,1.47Zm-1.82-1.81-1.47-1.47,2.12-2.12,1.47,1.47Zm-1.82-1.82-1.47-1.47,2.12-2.12,1.47,1.47Zm-1.82-1.82-1.47-1.47,2.12-2.12,1.47,1.47Zm-1.82-1.82-1.47-1.47,2.12-2.12,1.47,1.47Zm-1.81-1.82L128.67,63l2.12-2.12,1.47,1.47Zm-1.82-1.81-1.47-1.47,2.12-2.12,1.47,1.47Zm29.01,29.01-1.39-1.39,2.12-2.12,1.39,1.39ZM128.62,58.72l-2.12,2.12-1.73-1.73,2.12-2.12Z" fill="#515aa5"/>
    </g>
    <g id="downleft">
      <path id="_2-2" data-name="2" d="M120.98,154.91l.86.84s.36.24,1.01-.44l22.06-22.04h0l1.26-1.27,1.44-1.44h0l19.09-19.11c.68-.64.44-1.01.44-1.01l-.84-.86-21.08,21.14Z" fill="#202b52" opacity="0.2"/>
      <path id="_1-2" data-name="1" d="M154.24,121.65l-5.29-5.29-33.26,33.26,5.29,5.29Zm-33.26,32.56-2.12-2.12,1.73-1.73,2.12,2.12.35-.35-2.12-2.12,1.47-1.47,2.12,2.12.35-.35-2.12-2.12,1.47-1.47,2.12,2.12.35-.35-2.12-2.12,1.47-1.47,2.12,2.12.35-.35-2.12-2.12,1.47-1.47,2.12,2.12.35-.35-2.12-2.12,1.47-1.47,2.12,2.12.35-.35-2.12-2.12,1.47-1.47,2.12,2.12.35-.35-2.12-2.12,1.47-1.47,2.12,2.12.35-.35-2.12-2.12,1.47-1.47,2.12,2.12.35-.35-2.12-2.12,1.47-1.47,2.12,2.12.35-.35-2.12-2.12,1.47-1.47,2.12,2.12.35-.35-2.12-2.12,1.47-1.47,2.12,2.12.35-.35-2.12-2.12,1.47-1.47,2.12,2.12.35-.35-2.12-2.12,1.47-1.47,2.12,2.12.35-.35-2.12-2.12,1.47-1.47,2.12,2.12.35-.35-2.12-2.12,1.47-1.47,2.12,2.12.35-.35-2.12-2.12,1.47-1.47,2.12,2.12.35-.35-2.12-2.12,1.39-1.39,2.12,2.12Zm26.53-31.47-1.47,1.47-2.12-2.12,1.47-1.47Zm-1.78-2.47,1.47-1.47,2.12,2.12-1.47,1.47Zm-.04,4.29-1.47,1.47-2.12-2.12,1.47-1.47Zm-1.82,1.82-1.47,1.47-2.12-2.12,1.47-1.47Zm-1.82,1.81-1.47,1.47-2.12-2.12,1.47-1.47Zm-1.82,1.82-1.47,1.47-2.12-2.12,1.47-1.47Zm-1.81,1.82-1.47,1.47-2.12-2.12,1.47-1.47Zm-1.82,1.82-1.47,1.47L133.01,133l1.47-1.47Zm-1.82,1.82-1.47,1.47-2.12-2.12,1.47-1.47Zm-1.82,1.81-1.47,1.47-2.12-2.12,1.47-1.47Zm-1.82,1.82-1.47,1.47-2.12-2.12,1.47-1.47Zm-1.81,1.82-1.47,1.47-2.12-2.12,1.47-1.47Zm-1.82,1.82-1.47,1.47-2.12-2.12,1.47-1.47Zm-1.82,1.82-1.47,1.47-2.12-2.12,1.47-1.47Zm-1.82,1.81-1.47,1.47-2.12-2.12,1.47-1.47Zm-1.82,1.82-1.47,1.47-2.12-2.12,1.47-1.47Zm29.01-29.01-1.39,1.39-2.12-2.12,1.39-1.39Zm-32.94,28.71,2.12,2.12-1.73,1.73-2.12-2.12Z" fill="#515aa5"/>
    </g>
    <g id="downright">
      <path id="_2-3" data-name="2" d="M214.31,155.53l.84-.86s.24-.36-.44-1.01L192.67,131.6h0l-1.27-1.26-1.44-1.44h0l-19.11-19.09c-.64-.68-1.01-.44-1.01-.44l-.86.84,21.14,21.08Z" fill="#202b52"/>
      <path id="_1-3" data-name="1" d="M181.05,122.27l-5.29,5.29,33.26,33.26,5.29-5.29Zm32.56,33.26-2.12,2.12-1.73-1.73,2.12-2.12-.35-.35-2.12,2.12-1.47-1.47,2.12-2.12-.35-.35-2.12,2.12-1.47-1.47,2.12-2.12-.35-.35-2.12,2.12-1.47-1.47,2.12-2.12-.35-.35-2.12,2.12-1.47-1.47,2.12-2.12-.35-.35-2.12,2.12-1.47-1.47,2.12-2.12-.35-.35-2.12,2.12L198.84,145l2.12-2.12-.35-.35-2.12,2.12-1.47-1.47,2.12-2.12-.35-.35-2.12,2.12-1.47-1.47,2.12-2.12-.35-.35-2.12,2.12-1.47-1.47,2.12-2.12-.35-.35-2.12,2.12-1.47-1.47,2.12-2.12-.35-.35-2.12,2.12-1.47-1.47,2.12-2.12-.35-.35-2.12,2.12-1.47-1.47,2.12-2.12-.35-.35-2.12,2.12-1.47-1.47,2.12-2.12-.35-.35-2.12,2.12-1.47-1.47,2.12-2.12-.35-.35-2.12,2.12-1.47-1.47,2.12-2.12-.35-.35-2.12,2.12-1.47-1.47,2.12-2.12-.35-.35-2.12,2.12-1.39-1.39,2.12-2.12ZM182.14,129l1.47,1.47-2.12,2.12-1.47-1.47Zm-2.47,1.78-1.47-1.47,2.12-2.12,1.47,1.47Zm4.29.04,1.47,1.47-2.12,2.12-1.47-1.47Zm1.82,1.82,1.47,1.47-2.12,2.12-1.47-1.47Zm1.81,1.82,1.47,1.47-2.12,2.12-1.47-1.47Zm1.82,1.82,1.47,1.47-2.12,2.12-1.47-1.47Zm1.82,1.81,1.47,1.47-2.12,2.12-1.47-1.47Zm1.82,1.82,1.47,1.47-2.12,2.12-1.47-1.47Zm1.81,1.82,1.47,1.47-2.12,2.12-1.47-1.47Zm1.82,1.82,1.47,1.47-2.12,2.12-1.47-1.47Zm1.82,1.82,1.47,1.47-2.12,2.12-1.47-1.47Zm1.82,1.81,1.47,1.47-2.12,2.12-1.47-1.47Zm1.82,1.82,1.47,1.47-2.12,2.12-1.47-1.47Zm1.81,1.82,1.47,1.47-2.12,2.12-1.47-1.47Zm1.82,1.82,1.47,1.47-2.12,2.12-1.47-1.47Zm1.82,1.81,1.47,1.47-2.12,2.12-1.47-1.47Zm-29.01-29.01,1.39,1.39-2.12,2.12-1.39-1.39Zm28.71,32.95,2.12-2.12,1.73,1.73-2.12,2.12Z" fill="#515aa5"/>
    </g>
    <g id="upright">
      <path id="_2-4" data-name="2" d="M214.93,62.2l-.86-.84s-.36-.24-1.01.44L191,83.84h0l-1.26,1.27-1.44,1.44h0l-19.09,19.11c-.68.64-.44,1.01-.44,1.01l.84.86,21.08-21.14Z" fill="#202b52"/>
      <path id="_1-4" data-name="1" d="M181.67,95.46l5.29,5.29,33.26-33.26-5.29-5.29ZM214.93,62.9l2.12,2.12-1.73,1.73-2.12-2.12-.35.35,2.12,2.12-1.47,1.47-2.12-2.12-.35.35,2.12,2.12-1.47,1.47-2.12-2.12-.35.35,2.12,2.12-1.47,1.47-2.12-2.12-.35.35,2.12,2.12-1.47,1.47-2.12-2.12-.35.35,2.12,2.12-1.47,1.47-2.12-2.12-.35.35,2.12,2.12-1.47,1.47-2.12-2.12-.35.35,2.12,2.12-1.47,1.47-2.12-2.12-.35.35,2.12,2.12-1.47,1.47-2.12-2.12-.35.35,2.12,2.12-1.47,1.47-2.12-2.12-.35.35,2.12,2.12-1.47,1.47L195,82.83l-.35.35,2.12,2.12-1.47,1.47-2.12-2.12-.35.35,2.12,2.12-1.47,1.47-2.12-2.12-.35.35,2.12,2.12-1.47,1.47-2.12-2.12-.35.35,2.12,2.12-1.47,1.47-2.12-2.12-.35.35,2.12,2.12-1.47,1.47-2.12-2.12-.35.35,2.12,2.12-1.47,1.47-2.12-2.12-.35.35,2.12,2.12-1.39,1.39-2.12-2.12ZM188.4,94.37l1.47-1.47,2.12,2.12-1.47,1.47Zm1.77,2.47-1.47,1.47-2.12-2.12,1.47-1.47Zm.05-4.29,1.47-1.47,2.12,2.12-1.47,1.47Zm1.82-1.82,1.47-1.47,2.12,2.12-1.47,1.47Zm1.82-1.81,1.47-1.47,2.12,2.12-1.47,1.47Zm1.81-1.82,1.47-1.47,2.12,2.12-1.47,1.47Zm1.82-1.82,1.47-1.47,2.12,2.12-1.47,1.47Zm1.82-1.82,1.47-1.47,2.12,2.12-1.47,1.47Zm1.82-1.82,1.47-1.47,2.12,2.12-1.47,1.47Zm1.82-1.81,1.47-1.47,2.12,2.12-1.47,1.47Zm1.81-1.82,1.47-1.47,2.12,2.12-1.47,1.47Zm1.82-1.82,1.47-1.47,2.12,2.12-1.47,1.47Zm1.82-1.82,1.47-1.47,2.12,2.12-1.47,1.47Zm1.82-1.81,1.47-1.47,2.12,2.12-1.47,1.47Zm1.82-1.82,1.47-1.47,2.12,2.12-1.47,1.47Zm1.81-1.82,1.47-1.47,2.12,2.12-1.47,1.47ZM184.84,97.93l1.39-1.39,2.12,2.12-1.39,1.39Zm32.95-28.71-2.12-2.12,1.73-1.73,2.12,2.12Z" fill="#515aa5"/>
    </g>
  </g>
</svg>
