<svg xmlns="http://www.w3.org/2000/svg" width="963" height="735" viewBox="0 0 963 735">
  <g id="グループ_3359" data-name="グループ 3359" transform="translate(-202 -4279)">
    <text id="_13:00" data-name="13:00" transform="translate(223 4500)" font-size="14" font-family="SegoeUI, Segoe UI" letter-spacing="0.15em"><tspan x="-20.811" y="0">13:00</tspan></text>
    <text id="_12:00" data-name="12:00" transform="translate(223 4398)" font-size="14" font-family="SegoeUI, Segoe UI" letter-spacing="0.15em"><tspan x="-20.811" y="0">12:00</tspan></text>
    <text id="_11:00" data-name="11:00" transform="translate(223 4294)" font-size="14" font-family="SegoeUI, Segoe UI" letter-spacing="0.15em"><tspan x="-20.811" y="0">11:00</tspan></text>
    <text id="_14:00" data-name="14:00" transform="translate(223 4602)" font-size="14" font-family="SegoeUI, Segoe UI" letter-spacing="0.15em"><tspan x="-20.811" y="0">14:00</tspan></text>
    <text id="_15:00" data-name="15:00" transform="translate(223 4704)" font-size="14" font-family="SegoeUI, Segoe UI" letter-spacing="0.15em"><tspan x="-20.811" y="0">15:00</tspan></text>
    <text id="_16:00" data-name="16:00" transform="translate(223 4806)" font-size="14" font-family="SegoeUI, Segoe UI" letter-spacing="0.15em"><tspan x="-20.811" y="0">16:00</tspan></text>
    <text id="_17:00" data-name="17:00" transform="translate(223 4908)" font-size="14" font-family="SegoeUI, Segoe UI" letter-spacing="0.15em"><tspan x="-20.811" y="0">17:00</tspan></text>
    <text id="_18:00" data-name="18:00" transform="translate(223 5010)" font-size="14" font-family="SegoeUI, Segoe UI" letter-spacing="0.15em"><tspan x="-20.811" y="0">18:00</tspan></text>
    <rect id="長方形_607" data-name="長方形 607" width="904" height="52" transform="translate(261 4289)" fill="#ededed"/>
    <rect id="長方形_611" data-name="長方形 611" width="904" height="50" transform="translate(261 4341)" fill="#fff"/>
    <rect id="長方形_703" data-name="長方形 703" width="904" height="2" transform="translate(261 4287)" fill="#d6d6d6"/>
    <rect id="長方形_607-2" data-name="長方形 607" width="904" height="52" transform="translate(261 4391)" fill="#ededed"/>
    <rect id="長方形_611-2" data-name="長方形 611" width="904" height="50" transform="translate(261 4443)" fill="#fff"/>
    <rect id="長方形_703-2" data-name="長方形 703" width="904" height="2" transform="translate(261 4391)" fill="#d6d6d6"/>
    <rect id="長方形_607-3" data-name="長方形 607" width="904" height="52" transform="translate(261 4493)" fill="#ededed"/>
    <rect id="長方形_611-3" data-name="長方形 611" width="904" height="50" transform="translate(261 4545)" fill="#fff"/>
    <rect id="長方形_703-3" data-name="長方形 703" width="904" height="2" transform="translate(261 4493)" fill="#d6d6d6"/>
    <rect id="長方形_607-4" data-name="長方形 607" width="904" height="52" transform="translate(261 4595)" fill="#ededed"/>
    <rect id="長方形_611-4" data-name="長方形 611" width="904" height="50" transform="translate(261 4647)" fill="#fff"/>
    <rect id="長方形_703-4" data-name="長方形 703" width="904" height="2" transform="translate(261 4595)" fill="#d6d6d6"/>
    <rect id="長方形_607-5" data-name="長方形 607" width="904" height="52" transform="translate(261 4697)" fill="#ededed"/>
    <rect id="長方形_611-5" data-name="長方形 611" width="904" height="50" transform="translate(261 4749)" fill="#fff"/>
    <rect id="長方形_703-5" data-name="長方形 703" width="904" height="2" transform="translate(261 4697)" fill="#d6d6d6"/>
    <rect id="長方形_607-6" data-name="長方形 607" width="904" height="52" transform="translate(261 4799)" fill="#ededed"/>
    <rect id="長方形_611-6" data-name="長方形 611" width="904" height="50" transform="translate(261 4851)" fill="#fff"/>
    <rect id="長方形_703-6" data-name="長方形 703" width="904" height="2" transform="translate(261 4799)" fill="#d6d6d6"/>
    <rect id="長方形_607-7" data-name="長方形 607" width="904" height="52" transform="translate(261 4901)" fill="#ededed"/>
    <rect id="長方形_611-7" data-name="長方形 611" width="904" height="50" transform="translate(261 4953)" fill="#fff"/>
    <rect id="長方形_703-7" data-name="長方形 703" width="904" height="2" transform="translate(261 4901)" fill="#d6d6d6"/>
    <rect id="長方形_703-8" data-name="長方形 703" width="904" height="2" transform="translate(261 5003)" fill="#d6d6d6"/>
  </g>
</svg>
