<svg xmlns="http://www.w3.org/2000/svg" width="73.809" height="101" viewBox="0 0 73.809 101">
  <g id="グループ_110" data-name="グループ 110" transform="translate(-930 -1202)">
    <g id="css" transform="translate(923 1215.508)">
      <path id="パス_41" data-name="パス 41" d="M80.809,5H7l6.513,73.809L43.9,87.492,74.3,78.809,80.809,5Z" transform="translate(0 0)" fill="#0277bd"/>
      <path id="パス_42" data-name="パス 42" d="M24,8V77.25L48.313,70.3,53.741,8Z" transform="translate(19.904 3.513)" fill="#039be5"/>
      <path id="パス_43" data-name="パス 43" d="M43.755,13H24v8.683H34.637l-.651,8.683H24V39.05h9.552L32.9,48.819,24,51.858v9.118l17.15-5.644,1.52-24.965h0Z" transform="translate(19.904 9.367)" fill="#fff"/>
      <path id="パス_44" data-name="パス 44" d="M34.772,13v8.683H15.451L14.8,13ZM24.786,30.367l.434,8.683h9.552V30.367Zm.868,13.025H16.971l.651,11.94,17.15,5.644V51.858l-8.9-3.039Z" transform="translate(9.133 9.367)" fill="#eee"/>
    </g>
    <path id="パス_48" data-name="パス 48" d="M10.386-4.537A9.024,9.024,0,0,1,8.86-4.654a2.779,2.779,0,0,1-1.139-.44,2.051,2.051,0,0,1-.707-.884,3.761,3.761,0,0,1-.238-1.466A9.786,9.786,0,0,1,6.837-8.49,9.47,9.47,0,0,0,6.9-9.5a2.394,2.394,0,0,0-.17-.965,1.468,1.468,0,0,0-.5-.618,2.125,2.125,0,0,0-.8-.339,7.244,7.244,0,0,0-1.034-.145v-1.042a7.142,7.142,0,0,0,1.054-.166,2.2,2.2,0,0,0,.787-.335,1.447,1.447,0,0,0,.5-.634,2.457,2.457,0,0,0,.157-.933,9.482,9.482,0,0,0-.061-1.018,9.675,9.675,0,0,1-.061-1.042,3.691,3.691,0,0,1,.238-1.413,2.087,2.087,0,0,1,.707-.913,2.8,2.8,0,0,1,1.147-.456,8.49,8.49,0,0,1,1.518-.125v.662a6.989,6.989,0,0,0-.748.085,2.119,2.119,0,0,0-.676.206,1.186,1.186,0,0,0-.471.513,2.088,2.088,0,0,0-.181.949v1.89a4.166,4.166,0,0,1-.2,1.405,2.151,2.151,0,0,1-.6.9,2.762,2.762,0,0,1-.866.513,6.458,6.458,0,0,1-1.117.3v.25a7.331,7.331,0,0,1,1.1.3,2.7,2.7,0,0,1,.886.517,2.23,2.23,0,0,1,.591.9,4.046,4.046,0,0,1,.21,1.413v1.882a2.176,2.176,0,0,0,.169.929,1.217,1.217,0,0,0,.483.541,1.946,1.946,0,0,0,.7.226q.4.057.728.073Zm6.581-2.4a3.364,3.364,0,0,1-2.706-1.147,4.586,4.586,0,0,1-.977-3.077,4.613,4.613,0,0,1,.262-1.571,4.334,4.334,0,0,1,.763-1.329,3.565,3.565,0,0,1,1.2-.925,3.52,3.52,0,0,1,1.567-.351,3.054,3.054,0,0,1,1.906.561,1.822,1.822,0,0,1,.735,1.53,1.323,1.323,0,0,1-.194.715.694.694,0,0,1-.638.311,1.051,1.051,0,0,1-.739-.242A.721.721,0,0,1,17.88-13a3.025,3.025,0,0,1,.1-.745,4.082,4.082,0,0,0,.113-.56.713.713,0,0,0-.431-.334,2.165,2.165,0,0,0-.616-.085,1.7,1.7,0,0,0-.737.166,1.9,1.9,0,0,0-.681.61,3.269,3.269,0,0,0-.483,1.09,6.353,6.353,0,0,0-.185,1.639,4.177,4.177,0,0,0,.665,2.451,2.041,2.041,0,0,0,1.746.949,2.179,2.179,0,0,0,1.31-.382,3.721,3.721,0,0,0,.98-1.145L20.174-9a4.173,4.173,0,0,1-1.405,1.51A3.3,3.3,0,0,1,16.968-6.936Zm9.086-4.111a2.034,2.034,0,0,1,.509.67,2.182,2.182,0,0,1,.178.929,2.264,2.264,0,0,1-.828,1.809,3.2,3.2,0,0,1-2.144.7,3.222,3.222,0,0,1-1.28-.25,3.524,3.524,0,0,1-.836-.46l-.162.525h-.606L20.8-9.892h.557a3.1,3.1,0,0,0,.275.738,3.543,3.543,0,0,0,.509.762,2.809,2.809,0,0,0,.755.6,2.012,2.012,0,0,0,.989.243,1.806,1.806,0,0,0,1.2-.353,1.248,1.248,0,0,0,.42-1.011,1.213,1.213,0,0,0-.133-.586,1.29,1.29,0,0,0-.392-.432,3.083,3.083,0,0,0-.654-.335q-.388-.149-.864-.295a8.025,8.025,0,0,1-.844-.311,3.364,3.364,0,0,1-.8-.464,2.276,2.276,0,0,1-.581-.695A1.983,1.983,0,0,1,21.014-13a2.179,2.179,0,0,1,.727-1.656,2.738,2.738,0,0,1,1.946-.678,3.968,3.968,0,0,1,.957.121,3.311,3.311,0,0,1,.8.291l.186-.42h.581l.121,2.56h-.557a2.573,2.573,0,0,0-.731-1.4,1.9,1.9,0,0,0-1.369-.539,1.524,1.524,0,0,0-1.042.333,1.035,1.035,0,0,0-.38.805,1.312,1.312,0,0,0,.125.606,1.115,1.115,0,0,0,.376.412,3.133,3.133,0,0,0,.61.3q.367.141.909.319a7.813,7.813,0,0,1,1.005.4A3.3,3.3,0,0,1,26.053-11.047Zm7.147,0a2.034,2.034,0,0,1,.509.67,2.182,2.182,0,0,1,.178.929,2.264,2.264,0,0,1-.828,1.809,3.2,3.2,0,0,1-2.144.7,3.222,3.222,0,0,1-1.28-.25,3.525,3.525,0,0,1-.836-.46l-.162.525h-.606l-.081-2.77h.557a3.1,3.1,0,0,0,.275.738,3.543,3.543,0,0,0,.509.762,2.809,2.809,0,0,0,.755.6,2.012,2.012,0,0,0,.989.243,1.806,1.806,0,0,0,1.2-.353,1.248,1.248,0,0,0,.42-1.011,1.213,1.213,0,0,0-.133-.586,1.29,1.29,0,0,0-.392-.432,3.084,3.084,0,0,0-.654-.335q-.388-.149-.864-.295a8.026,8.026,0,0,1-.844-.311,3.364,3.364,0,0,1-.8-.464,2.276,2.276,0,0,1-.581-.695A1.983,1.983,0,0,1,28.161-13a2.179,2.179,0,0,1,.727-1.656,2.738,2.738,0,0,1,1.946-.678,3.968,3.968,0,0,1,.957.121,3.311,3.311,0,0,1,.8.291l.186-.42h.581l.121,2.56h-.557a2.573,2.573,0,0,0-.731-1.4,1.9,1.9,0,0,0-1.369-.539,1.524,1.524,0,0,0-1.042.333,1.035,1.035,0,0,0-.38.805,1.311,1.311,0,0,0,.125.606,1.115,1.115,0,0,0,.376.412,3.133,3.133,0,0,0,.61.3q.367.141.909.319a7.813,7.813,0,0,1,1.005.4A3.3,3.3,0,0,1,33.2-11.047Zm9.744-.4a6.971,6.971,0,0,0-1.038.149,2.177,2.177,0,0,0-.8.335,1.467,1.467,0,0,0-.5.618,2.394,2.394,0,0,0-.17.965A9.469,9.469,0,0,0,40.5-8.373a9.786,9.786,0,0,1,.061,1.046,3.761,3.761,0,0,1-.238,1.466,2.051,2.051,0,0,1-.707.884,2.827,2.827,0,0,1-1.135.436,8.8,8.8,0,0,1-1.53.121v-.646q.33-.016.732-.073a1.873,1.873,0,0,0,.692-.226,1.217,1.217,0,0,0,.483-.541,2.176,2.176,0,0,0,.169-.929V-8.717a4.046,4.046,0,0,1,.21-1.413,2.23,2.23,0,0,1,.591-.9,2.7,2.7,0,0,1,.886-.517,7.331,7.331,0,0,1,1.1-.3v-.25a6.459,6.459,0,0,1-1.117-.3,2.763,2.763,0,0,1-.866-.513,2.151,2.151,0,0,1-.6-.9,4.166,4.166,0,0,1-.2-1.405v-1.89a2.088,2.088,0,0,0-.181-.949,1.186,1.186,0,0,0-.471-.513,2.119,2.119,0,0,0-.676-.206,6.986,6.986,0,0,0-.748-.085v-.662a8.489,8.489,0,0,1,1.518.125,2.8,2.8,0,0,1,1.147.456,2.087,2.087,0,0,1,.707.913,3.691,3.691,0,0,1,.238,1.413,9.675,9.675,0,0,1-.061,1.042,9.482,9.482,0,0,0-.061,1.018,2.458,2.458,0,0,0,.157.933,1.447,1.447,0,0,0,.5.634,2.351,2.351,0,0,0,.787.331,6.792,6.792,0,0,0,1.054.17Z" transform="translate(943.606 1221.64)" fill="#039be5"/>
  </g>
</svg>
