<svg xmlns="http://www.w3.org/2000/svg" width="73.809" height="99.5" viewBox="0 0 73.809 99.5">
  <g id="グループ_109" data-name="グループ 109" transform="translate(-817 -1203.5)">
    <g id="html" transform="translate(810 1215.508)">
      <path id="パス_37" data-name="パス 37" d="M80.809,5H7l6.513,73.809L43.9,87.492,74.3,78.809,80.809,5Z" transform="translate(0 0)" fill="#e65100"/>
      <path id="パス_38" data-name="パス 38" d="M24,8V77.25L48.313,70.3,53.741,8Z" transform="translate(19.904 3.513)" fill="#ff6d00"/>
      <path id="パス_39" data-name="パス 39" d="M24,39.05V30.367H42.669L41.15,55.332,24,60.976V51.858l8.9-3.039.651-9.769ZM43.321,21.683,43.972,13H24v8.683Z" transform="translate(19.904 9.367)" fill="#fff"/>
      <path id="パス_40" data-name="パス 40" d="M34.655,51.858v9.118l-17.15-5.644-.868-11.94H25.32l.434,5.427ZM24.018,21.683H34.655V13H14.9l1.52,26.05H34.655V30.367H24.669Z" transform="translate(9.25 9.367)" fill="#eee"/>
    </g>
    <path id="パス_47" data-name="パス 47" d="M9.557-7.929l-7.106-3.7v-.868l7.106-3.7v1.056l-5.9,3.069,5.9,3.077Zm10.325.169H16.156v-.507q.177-.015.392-.031a1.472,1.472,0,0,0,.353-.061A.552.552,0,0,0,17.22-8.6a.865.865,0,0,0,.1-.449v-3.9a1.838,1.838,0,0,0-.381-1.245,1.186,1.186,0,0,0-.928-.438,2.126,2.126,0,0,0-.743.127,2.8,2.8,0,0,0-.612.311,1.8,1.8,0,0,0-.4.384q-.139.192-.216.323v4.356a.811.811,0,0,0,.1.43.668.668,0,0,0,.319.261,1.7,1.7,0,0,0,.35.115,2.9,2.9,0,0,0,.4.054v.507H11.5v-.507l.366-.035a1.768,1.768,0,0,0,.321-.058.566.566,0,0,0,.32-.242.846.846,0,0,0,.107-.45v-8.826A1.252,1.252,0,0,0,12.5-18.4a.92.92,0,0,0-.311-.392,1.106,1.106,0,0,0-.488-.142q-.35-.042-.565-.058v-.492l2.8-.169.108.115v5.286h.031q.254-.254.462-.449a3.671,3.671,0,0,1,.546-.411,2.9,2.9,0,0,1,.689-.307,2.994,2.994,0,0,1,.889-.123,1.939,1.939,0,0,1,1.562.641,2.773,2.773,0,0,1,.546,1.848v3.941a.854.854,0,0,0,.1.434.633.633,0,0,0,.321.257,2.554,2.554,0,0,0,.321.1,2.3,2.3,0,0,0,.375.05Zm5.593-.33q-.5.207-.945.35a3.626,3.626,0,0,1-1.091.142,1.635,1.635,0,0,1-1.341-.48,2.106,2.106,0,0,1-.388-1.356v-5.132H20.343V-15.3h1.4v-2.359h1.4V-15.3h2.174v.738H23.155v4.233a7.585,7.585,0,0,0,.035.8,1.479,1.479,0,0,0,.165.557.791.791,0,0,0,.369.338,1.577,1.577,0,0,0,.661.115q.192,0,.565-.035a2.485,2.485,0,0,0,.526-.088Zm13.713.33H35.5v-.507l.357-.031a1.382,1.382,0,0,0,.319-.061A.552.552,0,0,0,36.5-8.6a.865.865,0,0,0,.1-.449v-3.91a1.864,1.864,0,0,0-.365-1.233,1.142,1.142,0,0,0-.91-.434,2.131,2.131,0,0,0-.707.115,2.228,2.228,0,0,0-.607.323,1.942,1.942,0,0,0-.373.365,3.43,3.43,0,0,0-.227.327v4.371a.934.934,0,0,0,.092.442.6.6,0,0,0,.315.265,2.526,2.526,0,0,0,.319.1,2.271,2.271,0,0,0,.373.05v.507H30.9v-.507l.342-.031a1.355,1.355,0,0,0,.3-.061.552.552,0,0,0,.319-.242.865.865,0,0,0,.1-.449v-3.91a1.861,1.861,0,0,0-.366-1.233,1.146,1.146,0,0,0-.913-.434,2.078,2.078,0,0,0-.708.119,2.32,2.32,0,0,0-.608.327,1.827,1.827,0,0,0-.377.38l-.231.319v4.341a.828.828,0,0,0,.108.438.675.675,0,0,0,.323.269,1.582,1.582,0,0,0,.33.115,2.558,2.558,0,0,0,.376.054v.507H26.22v-.507l.365-.031a1.4,1.4,0,0,0,.327-.061A.552.552,0,0,0,27.23-8.6a.863.863,0,0,0,.1-.449v-4.7a.876.876,0,0,0-.111-.441,1.014,1.014,0,0,0-.311-.334,1.311,1.311,0,0,0-.361-.15,2.316,2.316,0,0,0-.446-.073v-.507l2.535-.169.108.108v1.083H28.8q.192-.192.469-.453a4.184,4.184,0,0,1,.515-.423,2.447,2.447,0,0,1,.672-.307,2.978,2.978,0,0,1,.872-.123,2.059,2.059,0,0,1,1.268.4,2.255,2.255,0,0,1,.761.956l.487-.472A4.027,4.027,0,0,1,34.4-15.1a2.543,2.543,0,0,1,.686-.323,2.947,2.947,0,0,1,.878-.123,1.929,1.929,0,0,1,1.519.63,2.85,2.85,0,0,1,.56,1.936v3.849a.934.934,0,0,0,.092.442.6.6,0,0,0,.315.265,2.077,2.077,0,0,0,.35.1,3.125,3.125,0,0,0,.388.05Zm4.448,0h-3.7v-.507l.376-.035a1.8,1.8,0,0,0,.33-.058.569.569,0,0,0,.323-.242.841.841,0,0,0,.108-.45v-8.78a1.16,1.16,0,0,0-.119-.519,1,1,0,0,0-.311-.38,1.578,1.578,0,0,0-.507-.169,4.607,4.607,0,0,0-.592-.092v-.492l2.85-.169.108.115V-9.143a.874.874,0,0,0,.1.442.637.637,0,0,0,.323.265,1.786,1.786,0,0,0,.334.115,2.453,2.453,0,0,0,.373.054Zm5.594-9.9L46.426-7.6h-1l2.788-10.064ZM57.475-11.6,50.368-7.9V-8.96l5.9-3.077-5.9-3.069v-1.056l7.106,3.7Z" transform="translate(823.55 1223.152)" fill="#ff6d00"/>
  </g>
</svg>
