<svg xmlns="http://www.w3.org/2000/svg" width="73.809" height="99.5" viewBox="0 0 73.809 99.5">
  <g id="グループ_111" data-name="グループ 111" transform="translate(-1053 -1203.5)">
    <g id="js" transform="translate(1045 1215.508)">
      <path id="パス_31" data-name="パス 31" d="M8,5H81.809L73.125,78.809,44.9,87.492,14.513,78.809Z" transform="translate(0 0)" fill="#e7a42b"/>
      <path id="パス_32" data-name="パス 32" d="M54.589,8,47.251,70.325,25,77.163V8Z" transform="translate(19.904 3.513)" fill="#f2bf22"/>
      <path id="パス_33" data-name="パス 33" d="M35.783,31.538l2.171,4.342-2.171,4.342H15.79L17.635,12H35.783l2.171,4.342-2.171,4.342H27.165l-.716,10.854Z" transform="translate(9.121 8.196)" fill="#faf9f8"/>
      <path id="パス_34" data-name="パス 34" d="M35.262,37.921l.217-.065L37.65,43.2,35.479,46.93l-.13.043L17.266,41.807,16.05,28h8.727l.608,7.1Z" transform="translate(9.425 26.929)" fill="#ebebeb"/>
      <path id="パス_35" data-name="パス 35" d="M44.69,21,41.281,50.133,25,55.126V46.052l8.314-2.562,1.606-13.807H25V21Z" transform="translate(19.904 18.734)" fill="#fff"/>
      <path id="パス_36" data-name="パス 36" d="M46.535,25.025H37.873l-.564-4.342H25V12H44.82l.369,2.735Z" transform="translate(19.904 8.196)" fill="#fff"/>
    </g>
    <path id="パス_49" data-name="パス 49" d="M5.369-7.081A3.823,3.823,0,0,1,2.519-8.91a7.879,7.879,0,0,1-1.034-4.315A8.031,8.031,0,0,1,2.519-17.6a3.858,3.858,0,0,1,2.849-1.852v.552a2.654,2.654,0,0,0-1.942,1.629,9.739,9.739,0,0,0-.665,4.056,9.6,9.6,0,0,0,.652,3.94A2.647,2.647,0,0,0,5.369-7.627Zm6.6-2.58a4.335,4.335,0,0,1-.213,1.373,3.187,3.187,0,0,1-.565,1.061,2.694,2.694,0,0,1-.854.682,2.322,2.322,0,0,1-1.047.236,1.42,1.42,0,0,1-.891-.236.693.693,0,0,1-.3-.555.822.822,0,0,1,.16-.5.543.543,0,0,1,.465-.216.756.756,0,0,1,.366.086.98.98,0,0,1,.279.226,2.185,2.185,0,0,1,.216.3q.11.176.209.342.505,0,.721-.612a6.413,6.413,0,0,0,.216-1.962v-4.934a.868.868,0,0,0-.1-.409.894.894,0,0,0-.269-.316,1.6,1.6,0,0,0-.509-.146q-.4-.073-.608-.093v-.412l2.633-.146.093.093Zm.1-8.83a.968.968,0,0,1-.249.662.788.788,0,0,1-.615.283.777.777,0,0,1-.588-.269.88.88,0,0,1-.249-.615.916.916,0,0,1,.249-.638.773.773,0,0,1,.588-.273.819.819,0,0,1,.622.256A.838.838,0,0,1,12.065-18.492Zm7.7,9.11q-.313.113-.549.183a1.887,1.887,0,0,1-.535.07,1.3,1.3,0,0,1-.828-.243,1.12,1.12,0,0,1-.4-.708h-.04a3.243,3.243,0,0,1-.928.731A2.6,2.6,0,0,1,15.3-9.1a1.69,1.69,0,0,1-1.214-.452,1.559,1.559,0,0,1-.475-1.184,2.017,2.017,0,0,1,.106-.678,1.621,1.621,0,0,1,.319-.539,1.6,1.6,0,0,1,.439-.356,3.835,3.835,0,0,1,.512-.249q.3-.113,1.214-.419a9.1,9.1,0,0,0,1.233-.479v-.658a2.787,2.787,0,0,0-.037-.332,1.392,1.392,0,0,0-.156-.465,1.324,1.324,0,0,0-.376-.429,1.125,1.125,0,0,0-.688-.183,1.543,1.543,0,0,0-.569.1,1.032,1.032,0,0,0-.369.216,1.819,1.819,0,0,0,.063.392,2.033,2.033,0,0,1,.063.479.571.571,0,0,1-.209.426.827.827,0,0,1-.582.193.544.544,0,0,1-.489-.236.937.937,0,0,1-.156-.529.943.943,0,0,1,.216-.585,2.17,2.17,0,0,1,.562-.5,3.058,3.058,0,0,1,.725-.316A2.844,2.844,0,0,1,16.26-16a5.445,5.445,0,0,1,.974.076,1.789,1.789,0,0,1,.755.329,1.534,1.534,0,0,1,.515.668,2.851,2.851,0,0,1,.176,1.087q0,.951-.02,1.686t-.02,1.606a.813.813,0,0,0,.09.412.728.728,0,0,0,.276.259.678.678,0,0,0,.316.066q.216.007.442.007Zm-2.321-3.511q-.565.167-.991.326a4.008,4.008,0,0,0-.791.4,1.8,1.8,0,0,0-.525.536,1.365,1.365,0,0,0-.193.736,1.04,1.04,0,0,0,.289.813,1.058,1.058,0,0,0,.735.26,1.508,1.508,0,0,0,.831-.23,2.421,2.421,0,0,0,.605-.543Zm9.449-2.52a1.648,1.648,0,0,0-.569.216,1.276,1.276,0,0,0-.462.575q-.392.891-.811,1.859t-.871,2.031q-.133.306-.283.725t-.276.8H23.1q-.632-1.563-1.164-2.849t-1.1-2.636a.992.992,0,0,0-.429-.475,1.73,1.73,0,0,0-.6-.216v-.439h3.034v.465a2.418,2.418,0,0,0-.5.083q-.3.076-.3.209a.428.428,0,0,0,.033.1q.033.083.067.189.272.678.769,1.893t.809,1.96q.239-.571.6-1.421t.781-1.9q.066-.179.126-.335a.875.875,0,0,0,.06-.315.259.259,0,0,0-.11-.2,1.112,1.112,0,0,0-.263-.156,1.694,1.694,0,0,0-.3-.1q-.146-.033-.239-.046v-.426h2.509Zm6.5,6.031q-.313.113-.549.183a1.887,1.887,0,0,1-.535.07,1.3,1.3,0,0,1-.828-.243,1.121,1.121,0,0,1-.4-.708h-.04a3.243,3.243,0,0,1-.928.731,2.6,2.6,0,0,1-1.194.253,1.69,1.69,0,0,1-1.214-.452,1.559,1.559,0,0,1-.475-1.184,2.017,2.017,0,0,1,.106-.678,1.621,1.621,0,0,1,.319-.539A1.6,1.6,0,0,1,28.1-12.3a3.835,3.835,0,0,1,.512-.249q.3-.113,1.214-.419a9.1,9.1,0,0,0,1.233-.479v-.658a2.788,2.788,0,0,0-.037-.332,1.392,1.392,0,0,0-.156-.465,1.324,1.324,0,0,0-.376-.429,1.125,1.125,0,0,0-.688-.183,1.543,1.543,0,0,0-.569.1,1.032,1.032,0,0,0-.369.216,1.819,1.819,0,0,0,.063.392,2.033,2.033,0,0,1,.063.479.571.571,0,0,1-.209.426.827.827,0,0,1-.582.193.544.544,0,0,1-.489-.236.937.937,0,0,1-.156-.529.943.943,0,0,1,.216-.585,2.17,2.17,0,0,1,.562-.5,3.058,3.058,0,0,1,.725-.316,2.844,2.844,0,0,1,.831-.13,5.445,5.445,0,0,1,.974.076,1.789,1.789,0,0,1,.755.329,1.534,1.534,0,0,1,.515.668,2.851,2.851,0,0,1,.176,1.087q0,.951-.02,1.686t-.02,1.606a.813.813,0,0,0,.09.412.728.728,0,0,0,.276.259.678.678,0,0,0,.316.066q.216.007.442.007Zm-2.321-3.511q-.565.167-.991.326a4.008,4.008,0,0,0-.791.4,1.8,1.8,0,0,0-.525.536,1.365,1.365,0,0,0-.193.736,1.04,1.04,0,0,0,.289.813,1.058,1.058,0,0,0,.735.26,1.508,1.508,0,0,0,.831-.23,2.421,2.421,0,0,0,.605-.543Zm7.3.419a1.675,1.675,0,0,1,.419.552,1.8,1.8,0,0,1,.146.765,1.864,1.864,0,0,1-.682,1.489,2.634,2.634,0,0,1-1.765.579A2.653,2.653,0,0,1,35.434-9.3a2.9,2.9,0,0,1-.688-.379l-.133.432h-.5l-.066-2.281h.459a2.55,2.55,0,0,0,.226.607,2.917,2.917,0,0,0,.419.627,2.312,2.312,0,0,0,.622.494,1.656,1.656,0,0,0,.815.2,1.487,1.487,0,0,0,.984-.291,1.028,1.028,0,0,0,.346-.833,1,1,0,0,0-.11-.482,1.062,1.062,0,0,0-.322-.356,2.539,2.539,0,0,0-.539-.276q-.319-.123-.711-.243a6.608,6.608,0,0,1-.695-.256,2.77,2.77,0,0,1-.655-.382,1.874,1.874,0,0,1-.479-.572,1.633,1.633,0,0,1-.186-.8,1.794,1.794,0,0,1,.6-1.363,2.254,2.254,0,0,1,1.6-.559,3.267,3.267,0,0,1,.788.1,2.726,2.726,0,0,1,.655.239l.153-.346H38.5l.1,2.108h-.459a2.119,2.119,0,0,0-.6-1.152,1.566,1.566,0,0,0-1.127-.444,1.255,1.255,0,0,0-.858.275.852.852,0,0,0-.313.663,1.08,1.08,0,0,0,.1.5.918.918,0,0,0,.309.339,2.579,2.579,0,0,0,.5.249q.3.116.748.263a6.433,6.433,0,0,1,.828.326A2.715,2.715,0,0,1,38.37-12.474Zm4.588,3.385a2.77,2.77,0,0,1-2.228-.944,3.776,3.776,0,0,1-.8-2.533,3.8,3.8,0,0,1,.216-1.293,3.568,3.568,0,0,1,.628-1.094,2.935,2.935,0,0,1,.984-.761A2.9,2.9,0,0,1,43.044-16a2.515,2.515,0,0,1,1.569.462,1.5,1.5,0,0,1,.605,1.26,1.089,1.089,0,0,1-.16.588.571.571,0,0,1-.525.256.866.866,0,0,1-.608-.2.594.594,0,0,1-.216-.444,2.491,2.491,0,0,1,.08-.613,3.361,3.361,0,0,0,.093-.461.587.587,0,0,0-.355-.275,1.782,1.782,0,0,0-.507-.07,1.4,1.4,0,0,0-.607.136,1.565,1.565,0,0,0-.56.5,2.691,2.691,0,0,0-.4.9,5.231,5.231,0,0,0-.153,1.35A3.439,3.439,0,0,0,41.85-10.6a1.68,1.68,0,0,0,1.437.781,1.794,1.794,0,0,0,1.079-.314,3.063,3.063,0,0,0,.807-.943l.425.279a3.435,3.435,0,0,1-1.157,1.243A2.719,2.719,0,0,1,42.958-9.089Zm8.172-5.885a1.1,1.1,0,0,1-.166.6.563.563,0,0,1-.512.263.778.778,0,0,1-.569-.193.587.587,0,0,1-.2-.426,1.4,1.4,0,0,1,.023-.266q.023-.12.043-.239a1.473,1.473,0,0,0-.731.253,2.161,2.161,0,0,0-.711.718v3.817a.716.716,0,0,0,.09.379.543.543,0,0,0,.283.219,1.778,1.778,0,0,0,.429.1q.263.033.455.047v.439H46.11V-9.7l.316-.027a1.214,1.214,0,0,0,.283-.053.478.478,0,0,0,.276-.209.747.747,0,0,0,.09-.389v-4.045a.921.921,0,0,0-.1-.405.807.807,0,0,0-.269-.319.908.908,0,0,0-.3-.116,2.66,2.66,0,0,0-.372-.05v-.439l2.181-.146.093.093v.924h.033a2.983,2.983,0,0,1,.918-.818,1.94,1.94,0,0,1,.924-.279.9.9,0,0,1,.682.273A1.01,1.01,0,0,1,51.13-14.974Zm3.737,5.712H51.7V-9.7l.316-.027a1.214,1.214,0,0,0,.283-.053.478.478,0,0,0,.276-.209.747.747,0,0,0,.09-.389v-4.045a.8.8,0,0,0-.1-.389.856.856,0,0,0-.269-.3,1.232,1.232,0,0,0-.366-.136,2.712,2.712,0,0,0-.439-.07v-.439L53.81-15.9l.093.093v5.346a.757.757,0,0,0,.089.386.529.529,0,0,0,.281.226,2.263,2.263,0,0,0,.284.1,1.75,1.75,0,0,0,.31.05Zm-.831-9.223a.968.968,0,0,1-.249.662.788.788,0,0,1-.615.283.777.777,0,0,1-.588-.269.88.88,0,0,1-.249-.615.916.916,0,0,1,.249-.638.773.773,0,0,1,.588-.273.819.819,0,0,1,.622.256A.838.838,0,0,1,54.036-18.485Zm7.634,3.444a3.415,3.415,0,0,1,.608,1.081,4.231,4.231,0,0,1,.216,1.406,3.756,3.756,0,0,1-.259,1.42,3.476,3.476,0,0,1-.685,1.094,3.225,3.225,0,0,1-.991.7,2.781,2.781,0,0,1-1.157.246,2.98,2.98,0,0,1-.971-.133,2.3,2.3,0,0,1-.618-.313h-.053v1.973a.785.785,0,0,0,.093.4.539.539,0,0,0,.286.233,2.936,2.936,0,0,0,.455.117,3.3,3.3,0,0,0,.489.063v.439H55.419v-.439q.206-.013.4-.033a1.842,1.842,0,0,0,.346-.066.45.45,0,0,0,.279-.233.9.9,0,0,0,.08-.392v-6.975a.807.807,0,0,0-.1-.386.853.853,0,0,0-.259-.3.941.941,0,0,0-.332-.123,3.112,3.112,0,0,0-.412-.057v-.439l2.234-.146.093.08v.738l.053.013a2.87,2.87,0,0,1,.858-.665A2.192,2.192,0,0,1,59.674-16a2.431,2.431,0,0,1,1.12.259A2.756,2.756,0,0,1,61.669-15.041Zm-1.084,4.714a3,3,0,0,0,.392-.958A5.4,5.4,0,0,0,61.1-12.5a4.927,4.927,0,0,0-.106-1,2.865,2.865,0,0,0-.332-.891,1.859,1.859,0,0,0-.592-.625,1.567,1.567,0,0,0-.878-.239,1.55,1.55,0,0,0-.838.216,2.536,2.536,0,0,0-.6.515v3.877a1.444,1.444,0,0,0,.2.372,1.75,1.75,0,0,0,.3.332,1.91,1.91,0,0,0,.446.269,1.479,1.479,0,0,0,.585.1,1.436,1.436,0,0,0,.718-.2A1.666,1.666,0,0,0,60.585-10.326Zm6.922.778q-.432.18-.818.3a3.139,3.139,0,0,1-.944.123,1.415,1.415,0,0,1-1.16-.416,1.823,1.823,0,0,1-.336-1.174v-4.442H63.066v-.638h1.21v-2.041h1.21v2.041h1.882v.638H65.5v3.664a6.567,6.567,0,0,0,.03.688,1.28,1.28,0,0,0,.143.482.684.684,0,0,0,.319.293,1.365,1.365,0,0,0,.572.1q.166,0,.489-.03a2.151,2.151,0,0,0,.455-.076Zm7.786-3.677A7.879,7.879,0,0,1,74.26-8.91a3.823,3.823,0,0,1-2.849,1.829v-.545a2.647,2.647,0,0,0,1.955-1.646,9.6,9.6,0,0,0,.652-3.94,9.739,9.739,0,0,0-.665-4.056A2.654,2.654,0,0,0,71.411-18.9v-.552A3.858,3.858,0,0,1,74.26-17.6,8.031,8.031,0,0,1,75.294-13.225Z" transform="translate(1051.515 1222.949)" fill="#f2bf22"/>
  </g>
</svg>
